<svg aria-hidden="true" style="position: absolute; width: 0; height: 0; overflow: hidden;" version="1.1" xmlns="http://www.w3.org/2000/svg" xmlns:xlink="http://www.w3.org/1999/xlink">
  <defs>
    <symbol id="icon-link" viewBox="0 0 24 24">
      <title>link</title>
      <path d="M9.199 13.599c0.992 1.327 2.43 2.126 3.948 2.345s3.123-0.142 4.45-1.134c0.239-0.179 0.465-0.375 0.655-0.568l2.995-2.994c1.163-1.204 1.722-2.751 1.696-4.285s-0.639-3.061-1.831-4.211c-1.172-1.132-2.689-1.692-4.199-1.683-1.492 0.008-2.983 0.571-4.137 1.683l-1.731 1.721c-0.392 0.389-0.394 1.023-0.004 1.414s1.023 0.394 1.414 0.004l1.709-1.699c0.77-0.742 1.763-1.117 2.76-1.123 1.009-0.006 2.017 0.367 2.798 1.122 0.795 0.768 1.203 1.783 1.221 2.808s-0.355 2.054-1.11 2.836l-3.005 3.006c-0.114 0.116-0.263 0.247-0.428 0.37-0.885 0.662-1.952 0.902-2.967 0.756s-1.971-0.678-2.632-1.563c-0.331-0.442-0.957-0.533-1.4-0.202s-0.533 0.957-0.202 1.4zM14.801 10.401c-0.992-1.327-2.43-2.126-3.948-2.345s-3.124 0.142-4.451 1.134c-0.239 0.179-0.464 0.375-0.655 0.568l-2.995 2.994c-1.163 1.204-1.722 2.751-1.696 4.285s0.639 3.061 1.831 4.211c1.172 1.132 2.689 1.692 4.199 1.683 1.492-0.008 2.983-0.571 4.137-1.683l1.723-1.723c0.391-0.391 0.391-1.024 0-1.414s-1.024-0.391-1.414 0l-1.696 1.699c-0.77 0.742-1.763 1.117-2.76 1.123-1.009 0.006-2.017-0.367-2.798-1.122-0.795-0.768-1.203-1.783-1.221-2.808s0.355-2.054 1.11-2.836l3.005-3.006c0.114-0.116 0.263-0.247 0.428-0.37 0.885-0.662 1.952-0.902 2.967-0.756s1.971 0.678 2.632 1.563c0.331 0.442 0.957 0.533 1.4 0.202s0.533-0.957 0.202-1.4z"></path>
    </symbol>
    <symbol id="icon-map-pin" viewBox="0 0 24 24">
      <title>map-pin</title>
      <path d="M22 10c0-2.761-1.12-5.263-2.929-7.071s-4.31-2.929-7.071-2.929-5.263 1.12-7.071 2.929-2.929 4.31-2.929 7.071c0 0.569 0.053 1.128 0.15 1.676 0.274 1.548 0.899 3.004 1.682 4.32 2.732 4.591 7.613 7.836 7.613 7.836 0.331 0.217 0.765 0.229 1.109 0 0 0 4.882-3.245 7.613-7.836 0.783-1.316 1.408-2.772 1.682-4.32 0.098-0.548 0.151-1.107 0.151-1.676zM20 10c0 0.444-0.041 0.887-0.119 1.328-0.221 1.25-0.737 2.478-1.432 3.646-1.952 3.28-5.166 5.851-6.449 6.799-1.284-0.948-4.497-3.519-6.449-6.799-0.695-1.168-1.211-2.396-1.432-3.646-0.078-0.441-0.119-0.884-0.119-1.328 0-2.209 0.894-4.208 2.343-5.657s3.448-2.343 5.657-2.343 4.208 0.894 5.657 2.343 2.343 3.448 2.343 5.657zM16 10c0-1.104-0.449-2.106-1.172-2.828s-1.724-1.172-2.828-1.172-2.106 0.449-2.828 1.172-1.172 1.724-1.172 2.828 0.449 2.106 1.172 2.828 1.724 1.172 2.828 1.172 2.106-0.449 2.828-1.172 1.172-1.724 1.172-2.828zM14 10c0 0.553-0.223 1.051-0.586 1.414s-0.861 0.586-1.414 0.586-1.051-0.223-1.414-0.586-0.586-0.861-0.586-1.414 0.223-1.051 0.586-1.414 0.861-0.586 1.414-0.586 1.051 0.223 1.414 0.586 0.586 0.861 0.586 1.414z"></path>
    </symbol>
    <symbol id="icon-like" viewBox="0 0 24 24">
      <title>like</title>
      <path d="M12 23.276l-1.667-1.506q-2.85-2.581-4.141-3.818t-2.877-3.065-2.178-3.308-0.592-3.039q0-2.635 1.802-4.464t4.491-1.829q3.119 0 5.163 2.42 2.044-2.42 5.163-2.42 2.689 0 4.491 1.829t1.802 4.464q0 2.097-1.398 4.356t-3.039 3.926-5.351 5.002z"></path>
    </symbol>
    <symbol id="icon-collections" viewBox="0 0 24 24">
      <title>collections</title>
      <path d="M2.016 6h1.969v14.016h14.016v1.969h-14.016q-0.797 0-1.383-0.586t-0.586-1.383v-14.016zM11.016 12l-3 3.984h12l-4.031-4.969-2.953 3.703zM21.984 15.984q0 0.797-0.586 1.406t-1.383 0.609h-12q-0.797 0-1.406-0.609t-0.609-1.406v-12q0-0.797 0.609-1.383t1.406-0.586h12q0.797 0 1.383 0.586t0.586 1.383v12z"></path>
    </symbol>
    <symbol id="icon-controller-play" viewBox="0 0 20 20">
      <title>controller-play</title>
      <path d="M20 10.001c0 0.498-0.508 0.857-0.508 0.857l-14.268 8.838c-1.040 0.682-1.89 0.177-1.89-1.115v-17.161c0-1.295 0.85-1.797 1.892-1.117l14.268 8.841c-0.002 0 0.507 0.358 0.507 0.857z"></path>
    </symbol>
    <symbol id="icon-chevron-left" viewBox="0 0 24 24">
      <title>chevron-left</title>
      <path d="M17.273 3.578l-8.422 8.422 8.422 8.422-2.578 2.578-11-11 11-11z"></path>
    </symbol>
    <symbol id="icon-minus" viewBox="0 0 24 24">
      <title>minus</title>
      <path d="M3.023 10.492h17.953v3.016h-17.953v-3.016z"></path>
    </symbol>
    <symbol id="icon-plus" viewBox="0 0 24 24">
      <title>plus</title>
      <path d="M22 13.409h-8.591v8.591h-2.819v-8.591h-8.591v-2.819h8.591v-8.591h2.819v8.591h8.591v2.819z"></path>
    </symbol>
    <symbol id="icon-width" viewBox="0 0 24 24">
      <title>width</title>
      <path d="M18.687 13.313h-13.375v4l-5.313-5.313 5.313-5.313v4h13.375v-4l5.313 5.313-5.313 5.313v-4z"></path>
    </symbol>
    <symbol id="icon-height" viewBox="0 0 24 24">
      <title>height</title>
      <path d="M10.688 18.687v-13.375h-4l5.313-5.313 5.313 5.313h-4v13.375h4l-5.313 5.313-5.313-5.313h4z"></path>
    </symbol>
    <symbol id="icon-gif" viewBox="0 0 24 24">
      <title>gif</title>
      <path d="M24 9.423h-5.154v1.691h3.463v2.577h-3.463v3.463h-2.577v-10.309h7.732v2.577zM6.846 6.846q0.725 0 1.208 0.483t0.483 1.208v0.886h-5.96v5.154h3.383v-2.577h2.577v3.463q0 0.725-0.483 1.208t-1.208 0.483h-5.154q-0.725 0-1.208-0.483t-0.483-1.208v-6.926q0-0.725 0.483-1.208t1.208-0.483h5.154zM11.114 6.846h2.577v10.309h-2.577v-10.309z"></path>
    </symbol>
    <symbol id="icon-search" viewBox="0 0 24 24">
      <title>search</title>
      <path d="M16.041 15.856c-0.034 0.026-0.067 0.055-0.099 0.087s-0.060 0.064-0.087 0.099c-1.258 1.213-2.969 1.958-4.855 1.958-1.933 0-3.682-0.782-4.95-2.050s-2.050-3.017-2.050-4.95 0.782-3.682 2.050-4.95 3.017-2.050 4.95-2.050 3.682 0.782 4.95 2.050 2.050 3.017 2.050 4.95c0 1.886-0.745 3.597-1.959 4.856zM21.707 20.293l-3.675-3.675c1.231-1.54 1.968-3.493 1.968-5.618 0-2.485-1.008-4.736-2.636-6.364s-3.879-2.636-6.364-2.636-4.736 1.008-6.364 2.636-2.636 3.879-2.636 6.364 1.008 4.736 2.636 6.364 3.879 2.636 6.364 2.636c2.125 0 4.078-0.737 5.618-1.968l3.675 3.675c0.391 0.391 1.024 0.391 1.414 0s0.391-1.024 0-1.414z"></path>
    </symbol>
    <symbol id="icon-clear" viewBox="0 0 24 24">
      <title>clear</title>
      <path d="M18.984 6.422l-5.578 5.578 5.578 5.578-1.406 1.406-5.578-5.578-5.578 5.578-1.406-1.406 5.578-5.578-5.578-5.578 1.406-1.406 5.578 5.578 5.578-5.578z"></path>
    </symbol>
    <symbol id="icon-dots-horizontal" viewBox="0 0 20 20">
      <title>dots-horizontal</title>
      <path d="M10.001 7.8c-1.215 0-2.201 0.985-2.201 2.2s0.986 2.2 2.201 2.2c1.215 0 2.199-0.985 2.199-2.2s-0.984-2.2-2.199-2.2zM3.001 7.8c-1.215 0-2.201 0.985-2.201 2.2s0.986 2.2 2.201 2.2c1.215 0 2.199-0.986 2.199-2.2s-0.984-2.2-2.199-2.2zM17.001 7.8c-1.215 0-2.201 0.985-2.201 2.2s0.986 2.2 2.201 2.2c1.215 0 2.199-0.985 2.199-2.2s-0.984-2.2-2.199-2.2z"></path>
    </symbol>
    <symbol id="icon-world" viewBox="0 0 32 32">
      <title>world</title>
      <path d="M15.5 0c-8.561 0-15.5 6.939-15.5 15.5s6.939 15.5 15.5 15.5 15.5-6.939 15.5-15.5-6.939-15.5-15.5-15.5zM28.975 15h-5.996c-0.055-2.215-0.449-4.331-1.148-6.268 1.35-0.563 2.598-1.312 3.736-2.197 2.023 2.271 3.288 5.22 3.408 8.465zM14.947 28.972c-1.662-1.384-3.056-3.181-4.076-5.268 1.309-0.409 2.696-0.633 4.129-0.679v5.949c-0.018 0-0.035-0.001-0.053-0.002zM16.051 2.028c1.886 1.57 3.425 3.673 4.466 6.126-1.426 0.487-2.941 0.77-4.518 0.82v-6.949c0.019 0.001 0.035 0.002 0.052 0.003zM17.717 2.198c2.76 0.459 5.236 1.748 7.164 3.614-1.047 0.803-2.191 1.483-3.428 1.998-0.91-2.157-2.187-4.064-3.736-5.612zM15 2.025v6.949c-1.577-0.051-3.093-0.333-4.518-0.82 1.041-2.453 2.58-4.556 4.466-6.126 0.018-0.001 0.034-0.002 0.052-0.003zM9.546 7.811c-1.235-0.515-2.38-1.195-3.427-1.998 1.927-1.866 4.404-3.155 7.164-3.614-1.55 1.547-2.826 3.454-3.737 5.612zM10.105 9.076c1.542 0.535 3.185 0.847 4.895 0.899v5.025h-5.979c0.054-2.094 0.425-4.095 1.084-5.924zM15 16v6.025c-1.577 0.048-3.102 0.306-4.539 0.769-0.866-2.062-1.377-4.359-1.44-6.794h5.979zM13.283 28.802c-2.473-0.411-4.719-1.488-6.545-3.052 0.985-0.683 2.050-1.261 3.188-1.7 0.872 1.808 2.013 3.413 3.357 4.752zM16 28.975v-5.949c1.432 0.046 2.82 0.27 4.129 0.679-1.021 2.087-2.414 3.884-4.076 5.268-0.017 0-0.035 0.001-0.053 0.002zM21.074 24.050c1.137 0.439 2.201 1.018 3.188 1.7-1.826 1.563-4.072 2.641-6.545 3.052 1.344-1.339 2.484-2.944 3.357-4.752zM20.539 22.794c-1.438-0.463-2.963-0.721-4.539-0.769v-6.025h5.979c-0.063 2.435-0.575 4.732-1.44 6.794zM16 15v-5.025c1.709-0.052 3.352-0.363 4.895-0.898 0.658 1.829 1.029 3.83 1.084 5.924h-5.979zM5.434 6.535c1.138 0.885 2.386 1.634 3.735 2.197-0.699 1.937-1.093 4.053-1.148 6.268h-5.996c0.12-3.245 1.385-6.194 3.409-8.465zM2.025 16h5.996c0.062 2.555 0.596 4.968 1.503 7.137-1.267 0.494-2.448 1.152-3.538 1.931-2.348-2.337-3.83-5.532-3.961-9.068zM25.014 25.067c-1.090-0.778-2.271-1.437-3.539-1.931 0.908-2.169 1.441-4.582 1.504-7.137h5.996c-0.131 3.537-1.614 6.732-3.961 9.068z"></path>
    </symbol>
  </defs>
</svg>
