<svg aria-hidden="true" style="position: absolute; width: 0; height: 0; overflow: hidden;" version="1.1" xmlns="http://www.w3.org/2000/svg" xmlns:xlink="http://www.w3.org/1999/xlink">
  <defs>
    <symbol id="icon-link" viewBox="0 0 24 24">
      <title>link</title>
      <path d="M9.199 13.599c0.992 1.327 2.43 2.126 3.948 2.345s3.123-0.142 4.45-1.134c0.239-0.179 0.465-0.375 0.655-0.568l2.995-2.994c1.163-1.204 1.722-2.751 1.696-4.285s-0.639-3.061-1.831-4.211c-1.172-1.132-2.689-1.692-4.199-1.683-1.492 0.008-2.983 0.571-4.137 1.683l-1.731 1.721c-0.392 0.389-0.394 1.023-0.004 1.414s1.023 0.394 1.414 0.004l1.709-1.699c0.77-0.742 1.763-1.117 2.76-1.123 1.009-0.006 2.017 0.367 2.798 1.122 0.795 0.768 1.203 1.783 1.221 2.808s-0.355 2.054-1.11 2.836l-3.005 3.006c-0.114 0.116-0.263 0.247-0.428 0.37-0.885 0.662-1.952 0.902-2.967 0.756s-1.971-0.678-2.632-1.563c-0.331-0.442-0.957-0.533-1.4-0.202s-0.533 0.957-0.202 1.4zM14.801 10.401c-0.992-1.327-2.43-2.126-3.948-2.345s-3.124 0.142-4.451 1.134c-0.239 0.179-0.464 0.375-0.655 0.568l-2.995 2.994c-1.163 1.204-1.722 2.751-1.696 4.285s0.639 3.061 1.831 4.211c1.172 1.132 2.689 1.692 4.199 1.683 1.492-0.008 2.983-0.571 4.137-1.683l1.723-1.723c0.391-0.391 0.391-1.024 0-1.414s-1.024-0.391-1.414 0l-1.696 1.699c-0.77 0.742-1.763 1.117-2.76 1.123-1.009 0.006-2.017-0.367-2.798-1.122-0.795-0.768-1.203-1.783-1.221-2.808s0.355-2.054 1.11-2.836l3.005-3.006c0.114-0.116 0.263-0.247 0.428-0.37 0.885-0.662 1.952-0.902 2.967-0.756s1.971 0.678 2.632 1.563c0.331 0.442 0.957 0.533 1.4 0.202s0.533-0.957 0.202-1.4z"></path>
    </symbol>
    <symbol id="icon-map-pin" viewBox="0 0 24 24">
      <title>map-pin</title>
      <path d="M22 10c0-2.761-1.12-5.263-2.929-7.071s-4.31-2.929-7.071-2.929-5.263 1.12-7.071 2.929-2.929 4.31-2.929 7.071c0 0.569 0.053 1.128 0.15 1.676 0.274 1.548 0.899 3.004 1.682 4.32 2.732 4.591 7.613 7.836 7.613 7.836 0.331 0.217 0.765 0.229 1.109 0 0 0 4.882-3.245 7.613-7.836 0.783-1.316 1.408-2.772 1.682-4.32 0.098-0.548 0.151-1.107 0.151-1.676zM20 10c0 0.444-0.041 0.887-0.119 1.328-0.221 1.25-0.737 2.478-1.432 3.646-1.952 3.28-5.166 5.851-6.449 6.799-1.284-0.948-4.497-3.519-6.449-6.799-0.695-1.168-1.211-2.396-1.432-3.646-0.078-0.441-0.119-0.884-0.119-1.328 0-2.209 0.894-4.208 2.343-5.657s3.448-2.343 5.657-2.343 4.208 0.894 5.657 2.343 2.343 3.448 2.343 5.657zM16 10c0-1.104-0.449-2.106-1.172-2.828s-1.724-1.172-2.828-1.172-2.106 0.449-2.828 1.172-1.172 1.724-1.172 2.828 0.449 2.106 1.172 2.828 1.724 1.172 2.828 1.172 2.106-0.449 2.828-1.172 1.172-1.724 1.172-2.828zM14 10c0 0.553-0.223 1.051-0.586 1.414s-0.861 0.586-1.414 0.586-1.051-0.223-1.414-0.586-0.586-0.861-0.586-1.414 0.223-1.051 0.586-1.414 0.861-0.586 1.414-0.586 1.051 0.223 1.414 0.586 0.586 0.861 0.586 1.414z"></path>
    </symbol>
    <symbol id="icon-favorite" viewBox="0 0 24 24">
      <title>favorite</title>
      <path d="M12 21.328l-1.453-1.313q-2.484-2.25-3.609-3.328t-2.508-2.672-1.898-2.883-0.516-2.648q0-2.297 1.57-3.891t3.914-1.594q2.719 0 4.5 2.109 1.781-2.109 4.5-2.109 2.344 0 3.914 1.594t1.57 3.891q0 1.828-1.219 3.797t-2.648 3.422-4.664 4.359z"></path>
    </symbol>
    <symbol id="icon-collections" viewBox="0 0 24 24">
      <title>collections</title>
      <path d="M2.016 6h1.969v14.016h14.016v1.969h-14.016q-0.797 0-1.383-0.586t-0.586-1.383v-14.016zM11.016 12l-3 3.984h12l-4.031-4.969-2.953 3.703zM21.984 15.984q0 0.797-0.586 1.406t-1.383 0.609h-12q-0.797 0-1.406-0.609t-0.609-1.406v-12q0-0.797 0.609-1.383t1.406-0.586h12q0.797 0 1.383 0.586t0.586 1.383v12z"></path>
    </symbol>
  </defs>
</svg>
